<svg xmlns="http://www.w3.org/2000/svg" xmlns:xlink="http://www.w3.org/1999/xlink" width="840" height="581.04"><rect width="840" height="581.04" rx="5" ry="5" class="a"/><svg y="0%" x="0%"><circle cx="20" cy="20" r="6" fill="#ff5f58"/><circle cx="40" cy="20" r="6" fill="#ffbd2e"/><circle cx="60" cy="20" r="6" fill="#18c132"/></svg><svg height="521.04" viewBox="0 0 80 52.104" width="800" x="15" xmlns="http://www.w3.org/2000/svg" xmlns:xlink="http://www.w3.org/1999/xlink" y="50"><style>@keyframes i{0%{transform:translateX(-80px)}1%{transform:translateX(-160px)}2.1%{transform:translateX(-240px)}3.1%{transform:translateX(-320px)}4.1%{transform:translateX(-400px)}5.2%{transform:translateX(-480px)}6.2%{transform:translateX(-560px)}7.2%{transform:translateX(-640px)}8.2%{transform:translateX(-720px)}9.3%{transform:translateX(-800px)}10.3%{transform:translateX(-880px)}11.3%{transform:translateX(-960px)}12.4%{transform:translateX(-1040px)}19.6%{transform:translateX(-1120px)}23.7%{transform:translateX(-1200px)}27.8%{transform:translateX(-1280px)}32%{transform:translateX(-1360px)}39.2%{transform:translateX(-1440px)}40.2%{transform:translateX(-1520px)}41.2%{transform:translateX(-1600px)}42.3%{transform:translateX(-1680px)}43.3%{transform:translateX(-1760px)}44.3%{transform:translateX(-1840px)}45.4%{transform:translateX(-1920px)}46.4%{transform:translateX(-2000px)}47.4%{transform:translateX(-2080px)}48.5%{transform:translateX(-2160px)}49.5%{transform:translateX(-2240px)}50.5%{transform:translateX(-2320px)}51.5%{transform:translateX(-2400px)}52.6%{transform:translateX(-2480px)}53.6%{transform:translateX(-2560px)}54.6%{transform:translateX(-2640px)}55.7%{transform:translateX(-2720px)}56.7%{transform:translateX(-2800px)}57.7%{transform:translateX(-2880px)}58.8%{transform:translateX(-2960px)}59.8%{transform:translateX(-3040px)}60.8%{transform:translateX(-3120px)}61.9%{transform:translateX(-3200px)}62.9%{transform:translateX(-3280px)}63.9%{transform:translateX(-3360px)}64.9%{transform:translateX(-3440px)}66%{transform:translateX(-3520px)}67%{transform:translateX(-3600px)}68%{transform:translateX(-3680px)}69.1%{transform:translateX(-3760px)}79.4%{transform:translateX(-3840px)}83.5%{transform:translateX(-3920px)}87.6%{transform:translateX(-4000px)}90.7%{transform:translateX(-4080px)}93.8%{transform:translateX(-4160px)}to{transform:translateX(-4240px)}}.a{fill:#282d35}.f{fill:#b9c0cb;white-space:pre}</style><g font-family="Monaco,Consolas,Menlo,'Bitstream Vera Sans Mono','Powerline Symbols',monospace" font-size="1.67"><defs><symbol id="1"><text y="1.67" class="f">r</text></symbol><symbol id="2"><text y="1.67" class="f">re</text></symbol><symbol id="3"><text y="1.67" class="f">rec</text></symbol><symbol id="4"><text y="1.67" class="f">reca</text></symbol><symbol id="5"><text y="1.67" class="f">recal</text></symbol><symbol id="6"><text y="1.67" class="f">recall</text></symbol><symbol id="7"><text y="1.67" class="f">recall</text><text x="7.014" y="1.67" class="f">stats</text></symbol><symbol id="8"><text x="12.024" y="1.67" class="f">📊</text><text x="15.03" y="1.67" class="f">recall.stats</text></symbol><symbol id="9"><text y="1.67" class="f">──────────────────────────────</text></symbol><symbol id="10"><text x="2.004" y="1.67" class="f">Total:</text><text x="13.026" y="1.67" class="f">6</text><text x="16.032" y="1.67" class="f">memories</text></symbol><symbol id="11"><text x="2.004" y="1.67" class="f">Semantic:</text><text x="13.026" y="1.67" class="f">2</text><text x="16.032" y="1.67" class="f">Project:</text><text x="25.05" y="1.67" class="f">2</text><text x="28.056" y="1.67" class="f">Tool:</text><text x="34.068" y="1.67" class="f">2</text></symbol><symbol id="12"><text y="1.67" class="f">recall</text><text x="7.014" y="1.67" class="f">query</text></symbol><symbol id="13"><text y="1.67" class="f">recall</text><text x="7.014" y="1.67" class="f">query</text><text x="13.026" y="1.67" class="f">&quot;RAG</text></symbol><symbol id="14"><text y="1.67" class="f">recall</text><text x="7.014" y="1.67" class="f">query</text><text x="13.026" y="1.67" class="f">&quot;RAG</text><text x="18.036" y="1.67" class="f">向量檢索&quot;</text></symbol><symbol id="15"><text y="1.67" class="f">recall</text><text x="7.014" y="1.67" class="f">query</text><text x="13.026" y="1.67" class="f">&quot;RAG</text><text x="18.036" y="1.67" class="f">向量檢索&quot;</text><text x="24.048" y="1.67" class="f">--k</text></symbol><symbol id="16"><text y="1.67" class="f">recall</text><text x="7.014" y="1.67" class="f">query</text><text x="13.026" y="1.67" class="f">&quot;RAG</text><text x="18.036" y="1.67" class="f">向量檢索&quot;</text><text x="24.048" y="1.67" class="f">--k</text><text x="28.056" y="1.67" class="f">2</text></symbol><symbol id="17"><text x="29.058" y="1.67" class="f">🔍</text><text x="32.064" y="1.67" class="f">Query:</text><text x="39.078" y="1.67" class="f">RAG</text><text x="43.086" y="1.67" class="f">向量檢索</text></symbol><symbol id="18"><text y="1.67" class="f">────────────────────────────────────────────────────────────</text></symbol><symbol id="19"><text x="2.004" y="1.67" class="f">1.</text><text x="5.01" y="1.67" class="f">[H]</text><text x="9.018" y="1.67" class="f">[06-28]</text><text x="17.034" y="1.67" class="f">[semantic]</text><text x="28.056" y="1.67" class="f">建置</text><text x="31.062" y="1.67" class="f">RAG</text><text x="35.07" y="1.67" class="f">記憶系統：SQLite+FTS5+RRF</text><text x="56.112" y="1.67" class="f">三路檢索</text></symbol><symbol id="20"><text x="5.01" y="1.67" class="f">80ms</text><text x="10.02" y="1.67" class="f">延遲，已整合至</text><text x="18.036" y="1.67" class="f">Hermes</text><text x="25.05" y="1.67" class="f">Agent</text></symbol><symbol id="21"><text x="2.004" y="1.67" class="f">2.</text><text x="5.01" y="1.67" class="f">[H]</text><text x="9.018" y="1.67" class="f">[06-28]</text><text x="17.034" y="1.67" class="f">[project]</text><text x="27.054" y="1.67" class="f">n8n</text><text x="31.062" y="1.67" class="f">自動化：排程爬蟲、Discord/Telegram</text><text x="57.114" y="1.67" class="f">串接</text></symbol><symbol id="a"><path fill="transparent" d="M0 0h80v24H0z"/></symbol><symbol id="b"><path fill="#6f7683" d="M0 0h1.102v2.171H0z"/></symbol></defs><path class="a" d="M0 0h80v52.104H0z"/><g style="animation-duration:4.849999999999996s;animation-iteration-count:infinite;animation-name:i;animation-timing-function:steps(1,end)"><svg width="4320"><svg><use xlink:href="#a"/><use xlink:href="#b" x="-.004"/></svg><svg x="80"><use xlink:href="#a"/><use xlink:href="#b" x=".996"/><use xlink:href="#1"/></svg><svg x="160"><use xlink:href="#a"/><use xlink:href="#b" x="1.996"/><use xlink:href="#2"/></svg><svg x="240"><use xlink:href="#a"/><use xlink:href="#b" x="2.996"/><use xlink:href="#3"/></svg><svg x="320"><use xlink:href="#a"/><use xlink:href="#b" x="3.996"/><use xlink:href="#4"/></svg><svg x="400"><use xlink:href="#a"/><use xlink:href="#b" x="4.996"/><use xlink:href="#5"/></svg><svg x="480"><use xlink:href="#a"/><use xlink:href="#b" x="5.996"/><use xlink:href="#6"/></svg><svg x="560"><use xlink:href="#a"/><use xlink:href="#b" x="6.996"/><use xlink:href="#6"/></svg><svg x="640"><use xlink:href="#a"/><use xlink:href="#b" x="7.996"/><text y="1.67" class="f">recall</text><text x="7.014" y="1.67" class="f">s</text></svg><svg x="720"><use xlink:href="#a"/><use xlink:href="#b" x="8.996"/><text y="1.67" class="f">recall</text><text x="7.014" y="1.67" class="f">st</text></svg><svg x="800"><use xlink:href="#a"/><use xlink:href="#b" x="9.996"/><text y="1.67" class="f">recall</text><text x="7.014" y="1.67" class="f">sta</text></svg><svg x="880"><use xlink:href="#a"/><use xlink:href="#b" x="10.996"/><text y="1.67" class="f">recall</text><text x="7.014" y="1.67" class="f">stat</text></svg><svg x="960"><use xlink:href="#a"/><use xlink:href="#b" x="11.996"/><use xlink:href="#7"/></svg><svg x="1040"><use xlink:href="#a"/><use xlink:href="#b" x="11.996" y="2.146"/><use xlink:href="#7"/></svg><svg x="1120"><use xlink:href="#a"/><use xlink:href="#b" x="-.004" y="4.317"/><use xlink:href="#7"/><use xlink:href="#8" y="2.171"/></svg><svg x="1200"><use xlink:href="#a"/><use xlink:href="#b" x="-.004" y="6.488"/><use xlink:href="#7"/><use xlink:href="#8" y="2.171"/><use xlink:href="#9" y="4.342"/></svg><svg x="1280"><use xlink:href="#a"/><use xlink:href="#b" x="-.004" y="8.659"/><use xlink:href="#7"/><use xlink:href="#8" y="2.171"/><use xlink:href="#9" y="4.342"/><use xlink:href="#10" y="6.513"/></svg><svg x="1360"><use xlink:href="#a"/><use xlink:href="#b" x="-.004" y="10.83"/><use xlink:href="#7"/><use xlink:href="#8" y="2.171"/><use xlink:href="#9" y="4.342"/><use xlink:href="#10" y="6.513"/><use xlink:href="#11" y="8.684"/></svg><svg x="1440"><use xlink:href="#a"/><use xlink:href="#b" x=".996" y="10.83"/><use xlink:href="#7"/><use xlink:href="#8" y="2.171"/><use xlink:href="#9" y="4.342"/><use xlink:href="#10" y="6.513"/><use xlink:href="#11" y="8.684"/><use xlink:href="#1" y="10.855"/></svg><svg x="1520"><use xlink:href="#a"/><use xlink:href="#b" x="1.996" y="10.83"/><use xlink:href="#7"/><use xlink:href="#8" y="2.171"/><use xlink:href="#9" y="4.342"/><use xlink:href="#10" y="6.513"/><use xlink:href="#11" y="8.684"/><use xlink:href="#2" y="10.855"/></svg><svg x="1600"><use xlink:href="#a"/><use xlink:href="#b" x="2.996" y="10.83"/><use xlink:href="#7"/><use xlink:href="#8" y="2.171"/><use xlink:href="#9" y="4.342"/><use xlink:href="#10" y="6.513"/><use xlink:href="#11" y="8.684"/><use xlink:href="#3" y="10.855"/></svg><svg x="1680"><use xlink:href="#a"/><use xlink:href="#b" x="3.996" y="10.83"/><use xlink:href="#7"/><use xlink:href="#8" y="2.171"/><use xlink:href="#9" y="4.342"/><use xlink:href="#10" y="6.513"/><use xlink:href="#11" y="8.684"/><use xlink:href="#4" y="10.855"/></svg><svg x="1760"><use xlink:href="#a"/><use xlink:href="#b" x="4.996" y="10.83"/><use xlink:href="#7"/><use xlink:href="#8" y="2.171"/><use xlink:href="#9" y="4.342"/><use xlink:href="#10" y="6.513"/><use xlink:href="#11" y="8.684"/><use xlink:href="#5" y="10.855"/></svg><svg x="1840"><use xlink:href="#a"/><use xlink:href="#b" x="5.996" y="10.83"/><use xlink:href="#7"/><use xlink:href="#8" y="2.171"/><use xlink:href="#9" y="4.342"/><use xlink:href="#10" y="6.513"/><use xlink:href="#11" y="8.684"/><use xlink:href="#6" y="10.855"/></svg><svg x="1920"><use xlink:href="#a"/><use xlink:href="#b" x="6.996" y="10.83"/><use xlink:href="#7"/><use xlink:href="#8" y="2.171"/><use xlink:href="#9" y="4.342"/><use xlink:href="#10" y="6.513"/><use xlink:href="#11" y="8.684"/><use xlink:href="#6" y="10.855"/></svg><svg x="2000"><use xlink:href="#a"/><use xlink:href="#b" x="7.996" y="10.83"/><use xlink:href="#7"/><use xlink:href="#8" y="2.171"/><use xlink:href="#9" y="4.342"/><use xlink:href="#10" y="6.513"/><use xlink:href="#11" y="8.684"/><text y="12.525" class="f">recall</text><text x="7.014" y="12.525" class="f">q</text></svg><svg x="2080"><use xlink:href="#a"/><use xlink:href="#b" x="8.996" y="10.83"/><use xlink:href="#7"/><use xlink:href="#8" y="2.171"/><use xlink:href="#9" y="4.342"/><use xlink:href="#10" y="6.513"/><use xlink:href="#11" y="8.684"/><text y="12.525" class="f">recall</text><text x="7.014" y="12.525" class="f">qu</text></svg><svg x="2160"><use xlink:href="#a"/><use xlink:href="#b" x="9.996" y="10.83"/><use xlink:href="#7"/><use xlink:href="#8" y="2.171"/><use xlink:href="#9" y="4.342"/><use xlink:href="#10" y="6.513"/><use xlink:href="#11" y="8.684"/><text y="12.525" class="f">recall</text><text x="7.014" y="12.525" class="f">que</text></svg><svg x="2240"><use xlink:href="#a"/><use xlink:href="#b" x="10.996" y="10.83"/><use xlink:href="#7"/><use xlink:href="#8" y="2.171"/><use xlink:href="#9" y="4.342"/><use xlink:href="#10" y="6.513"/><use xlink:href="#11" y="8.684"/><text y="12.525" class="f">recall</text><text x="7.014" y="12.525" class="f">quer</text></svg><svg x="2320"><use xlink:href="#a"/><use xlink:href="#b" x="11.996" y="10.83"/><use xlink:href="#7"/><use xlink:href="#8" y="2.171"/><use xlink:href="#9" y="4.342"/><use xlink:href="#10" y="6.513"/><use xlink:href="#11" y="8.684"/><use xlink:href="#12" y="10.855"/></svg><svg x="2400"><use xlink:href="#a"/><use xlink:href="#b" x="12.996" y="10.83"/><use xlink:href="#7"/><use xlink:href="#8" y="2.171"/><use xlink:href="#9" y="4.342"/><use xlink:href="#10" y="6.513"/><use xlink:href="#11" y="8.684"/><use xlink:href="#12" y="10.855"/></svg><svg x="2480"><use xlink:href="#a"/><use xlink:href="#b" x="13.996" y="10.83"/><use xlink:href="#7"/><use xlink:href="#8" y="2.171"/><use xlink:href="#9" y="4.342"/><use xlink:href="#10" y="6.513"/><use xlink:href="#11" y="8.684"/><text y="12.525" class="f">recall</text><text x="7.014" y="12.525" class="f">query</text><text x="13.026" y="12.525" class="f">&quot;</text></svg><svg x="2560"><use xlink:href="#a"/><use xlink:href="#b" x="14.996" y="10.83"/><use xlink:href="#7"/><use xlink:href="#8" y="2.171"/><use xlink:href="#9" y="4.342"/><use xlink:href="#10" y="6.513"/><use xlink:href="#11" y="8.684"/><text y="12.525" class="f">recall</text><text x="7.014" y="12.525" class="f">query</text><text x="13.026" y="12.525" class="f">&quot;R</text></svg><svg x="2640"><use xlink:href="#a"/><use xlink:href="#b" x="15.996" y="10.83"/><use xlink:href="#7"/><use xlink:href="#8" y="2.171"/><use xlink:href="#9" y="4.342"/><use xlink:href="#10" y="6.513"/><use xlink:href="#11" y="8.684"/><text y="12.525" class="f">recall</text><text x="7.014" y="12.525" class="f">query</text><text x="13.026" y="12.525" class="f">&quot;RA</text></svg><svg x="2720"><use xlink:href="#a"/><use xlink:href="#b" x="16.996" y="10.83"/><use xlink:href="#7"/><use xlink:href="#8" y="2.171"/><use xlink:href="#9" y="4.342"/><use xlink:href="#10" y="6.513"/><use xlink:href="#11" y="8.684"/><use xlink:href="#13" y="10.855"/></svg><svg x="2800"><use xlink:href="#a"/><use xlink:href="#b" x="17.996" y="10.83"/><use xlink:href="#7"/><use xlink:href="#8" y="2.171"/><use xlink:href="#9" y="4.342"/><use xlink:href="#10" y="6.513"/><use xlink:href="#11" y="8.684"/><use xlink:href="#13" y="10.855"/></svg><svg x="2880"><use xlink:href="#a"/><use xlink:href="#b" x="18.996" y="10.83"/><use xlink:href="#7"/><use xlink:href="#8" y="2.171"/><use xlink:href="#9" y="4.342"/><use xlink:href="#10" y="6.513"/><use xlink:href="#11" y="8.684"/><text y="12.525" class="f">recall</text><text x="7.014" y="12.525" class="f">query</text><text x="13.026" y="12.525" class="f">&quot;RAG</text><text x="18.036" y="12.525" class="f">向</text></svg><svg x="2960"><use xlink:href="#a"/><use xlink:href="#b" x="19.996" y="10.83"/><use xlink:href="#7"/><use xlink:href="#8" y="2.171"/><use xlink:href="#9" y="4.342"/><use xlink:href="#10" y="6.513"/><use xlink:href="#11" y="8.684"/><text y="12.525" class="f">recall</text><text x="7.014" y="12.525" class="f">query</text><text x="13.026" y="12.525" class="f">&quot;RAG</text><text x="18.036" y="12.525" class="f">向量</text></svg><svg x="3040"><use xlink:href="#a"/><use xlink:href="#b" x="20.996" y="10.83"/><use xlink:href="#7"/><use xlink:href="#8" y="2.171"/><use xlink:href="#9" y="4.342"/><use xlink:href="#10" y="6.513"/><use xlink:href="#11" y="8.684"/><text y="12.525" class="f">recall</text><text x="7.014" y="12.525" class="f">query</text><text x="13.026" y="12.525" class="f">&quot;RAG</text><text x="18.036" y="12.525" class="f">向量檢</text></svg><svg x="3120"><use xlink:href="#a"/><use xlink:href="#b" x="21.996" y="10.83"/><use xlink:href="#7"/><use xlink:href="#8" y="2.171"/><use xlink:href="#9" y="4.342"/><use xlink:href="#10" y="6.513"/><use xlink:href="#11" y="8.684"/><text y="12.525" class="f">recall</text><text x="7.014" y="12.525" class="f">query</text><text x="13.026" y="12.525" class="f">&quot;RAG</text><text x="18.036" y="12.525" class="f">向量檢索</text></svg><svg x="3200"><use xlink:href="#a"/><use xlink:href="#b" x="22.996" y="10.83"/><use xlink:href="#7"/><use xlink:href="#8" y="2.171"/><use xlink:href="#9" y="4.342"/><use xlink:href="#10" y="6.513"/><use xlink:href="#11" y="8.684"/><use xlink:href="#14" y="10.855"/></svg><svg x="3280"><use xlink:href="#a"/><use xlink:href="#b" x="23.996" y="10.83"/><use xlink:href="#7"/><use xlink:href="#8" y="2.171"/><use xlink:href="#9" y="4.342"/><use xlink:href="#10" y="6.513"/><use xlink:href="#11" y="8.684"/><use xlink:href="#14" y="10.855"/></svg><svg x="3360"><use xlink:href="#a"/><use xlink:href="#b" x="24.996" y="10.83"/><use xlink:href="#7"/><use xlink:href="#8" y="2.171"/><use xlink:href="#9" y="4.342"/><use xlink:href="#10" y="6.513"/><use xlink:href="#11" y="8.684"/><text y="12.525" class="f">recall</text><text x="7.014" y="12.525" class="f">query</text><text x="13.026" y="12.525" class="f">&quot;RAG</text><text x="18.036" y="12.525" class="f">向量檢索&quot;</text><text x="24.048" y="12.525" class="f">-</text></svg><svg x="3440"><use xlink:href="#a"/><use xlink:href="#b" x="25.996" y="10.83"/><use xlink:href="#7"/><use xlink:href="#8" y="2.171"/><use xlink:href="#9" y="4.342"/><use xlink:href="#10" y="6.513"/><use xlink:href="#11" y="8.684"/><text y="12.525" class="f">recall</text><text x="7.014" y="12.525" class="f">query</text><text x="13.026" y="12.525" class="f">&quot;RAG</text><text x="18.036" y="12.525" class="f">向量檢索&quot;</text><text x="24.048" y="12.525" class="f">--</text></svg><svg x="3520"><use xlink:href="#a"/><use xlink:href="#b" x="26.996" y="10.83"/><use xlink:href="#7"/><use xlink:href="#8" y="2.171"/><use xlink:href="#9" y="4.342"/><use xlink:href="#10" y="6.513"/><use xlink:href="#11" y="8.684"/><use xlink:href="#15" y="10.855"/></svg><svg x="3600"><use xlink:href="#a"/><use xlink:href="#b" x="27.996" y="10.83"/><use xlink:href="#7"/><use xlink:href="#8" y="2.171"/><use xlink:href="#9" y="4.342"/><use xlink:href="#10" y="6.513"/><use xlink:href="#11" y="8.684"/><use xlink:href="#15" y="10.855"/></svg><svg x="3680"><use xlink:href="#a"/><use xlink:href="#b" x="28.996" y="10.83"/><use xlink:href="#7"/><use xlink:href="#8" y="2.171"/><use xlink:href="#9" y="4.342"/><use xlink:href="#10" y="6.513"/><use xlink:href="#11" y="8.684"/><use xlink:href="#16" y="10.855"/></svg><svg x="3760"><use xlink:href="#a"/><use xlink:href="#b" x="28.996" y="13.001"/><use xlink:href="#7"/><use xlink:href="#8" y="2.171"/><use xlink:href="#9" y="4.342"/><use xlink:href="#10" y="6.513"/><use xlink:href="#11" y="8.684"/><use xlink:href="#16" y="10.855"/></svg><svg x="3840"><use xlink:href="#a"/><use xlink:href="#b" x="-.004" y="15.172"/><use xlink:href="#7"/><use xlink:href="#8" y="2.171"/><use xlink:href="#9" y="4.342"/><use xlink:href="#10" y="6.513"/><use xlink:href="#11" y="8.684"/><use xlink:href="#16" y="10.855"/><use xlink:href="#17" y="13.026"/></svg><svg x="3920"><use xlink:href="#a"/><use xlink:href="#b" x="-.004" y="17.343"/><use xlink:href="#7"/><use xlink:href="#8" y="2.171"/><use xlink:href="#9" y="4.342"/><use xlink:href="#10" y="6.513"/><use xlink:href="#11" y="8.684"/><use xlink:href="#16" y="10.855"/><use xlink:href="#17" y="13.026"/><use xlink:href="#18" y="15.197"/></svg><svg x="4000"><use xlink:href="#a"/><use xlink:href="#b" x="-.004" y="19.514"/><use xlink:href="#7"/><use xlink:href="#8" y="2.171"/><use xlink:href="#9" y="4.342"/><use xlink:href="#10" y="6.513"/><use xlink:href="#11" y="8.684"/><use xlink:href="#16" y="10.855"/><use xlink:href="#17" y="13.026"/><use xlink:href="#18" y="15.197"/><use xlink:href="#19" y="17.368"/></svg><svg x="4080"><use xlink:href="#a"/><use xlink:href="#b" x="-.004" y="21.685"/><use xlink:href="#7"/><use xlink:href="#8" y="2.171"/><use xlink:href="#9" y="4.342"/><use xlink:href="#10" y="6.513"/><use xlink:href="#11" y="8.684"/><use xlink:href="#16" y="10.855"/><use xlink:href="#17" y="13.026"/><use xlink:href="#18" y="15.197"/><use xlink:href="#19" y="17.368"/><use xlink:href="#20" y="19.539"/></svg><svg x="4160"><use xlink:href="#a"/><use xlink:href="#b" x="-.004" y="23.856"/><use xlink:href="#7"/><use xlink:href="#8" y="2.171"/><use xlink:href="#9" y="4.342"/><use xlink:href="#10" y="6.513"/><use xlink:href="#11" y="8.684"/><use xlink:href="#16" y="10.855"/><use xlink:href="#17" y="13.026"/><use xlink:href="#18" y="15.197"/><use xlink:href="#19" y="17.368"/><use xlink:href="#20" y="19.539"/><use xlink:href="#21" y="21.71"/></svg><svg x="4240"><use xlink:href="#a"/><use xlink:href="#b" x="1.996" y="26.027"/><use xlink:href="#7"/><use xlink:href="#8" y="2.171"/><use xlink:href="#9" y="4.342"/><use xlink:href="#10" y="6.513"/><use xlink:href="#11" y="8.684"/><use xlink:href="#16" y="10.855"/><use xlink:href="#17" y="13.026"/><use xlink:href="#18" y="15.197"/><use xlink:href="#19" y="17.368"/><use xlink:href="#20" y="19.539"/><use xlink:href="#21" y="21.71"/><text y="27.722" class="f">$</text></svg></svg></g></g></svg></svg>